<svg width="209" height="187" viewBox="0 0 209 187" fill="none" xmlns="http://www.w3.org/2000/svg">
<path d="M111.059 183.42C107.599 184.642 101.901 184.642 98.4415 183.42C68.934 173.334 3 131.26 3 59.9479C3 28.4686 28.3358 3 59.573 3C78.0915 3 94.4733 11.965 104.75 25.8199C115.027 11.965 131.51 3 149.927 3C181.164 3 206.5 28.4686 206.5 59.9479C206.5 131.26 140.566 173.334 111.059 183.42Z" fill="#44BDB6" stroke="#44BDB6" stroke-width="5" stroke-linecap="round" stroke-linejoin="round"/>
<path d="M75.3346 68.2074C74.9457 68.1701 74.3019 68.7932 73.9261 68.9873C73.6337 69.1382 72.9849 69.4668 72.6655 69.4631C72.4617 69.4608 72.024 69.2457 71.8125 69.1795C71.7017 69.2169 71.6107 69.2492 71.5198 69.325C71.354 69.4634 71.2412 69.6386 71.2288 69.8584C71.2079 70.2311 71.5239 70.5039 71.7634 70.7437C72.1534 71.0181 72.6123 71.1803 73.0888 71.2097C73.7633 71.2509 74.5071 71.0592 75.013 70.5986C75.447 70.2033 75.6517 69.6794 75.6626 69.0986C75.6693 68.7426 75.5839 68.4628 75.3346 68.2074Z" fill="white"/>
<path d="M129.006 86.1658L128.928 86.1571C128.761 86.1641 128.698 86.1901 128.576 86.2901C128.573 86.3986 128.585 86.4851 128.649 86.5766C129.053 87.1471 129.821 87.5395 130.445 87.8065C133.047 88.9182 136.09 89.1569 138.875 89.509C139.048 89.4659 139.181 89.4346 139.325 89.3235L139.296 89.1796C138.96 88.8841 138.526 88.7537 138.106 88.6273C137.021 88.301 135.886 88.1997 134.773 88.0003C133.934 87.85 133.088 87.6691 132.269 87.4332C131.144 87.109 130.089 86.6001 129.006 86.1658Z" fill="white"/>
<path d="M74.5326 46.0235C74.4366 46.0092 74.3338 45.9933 74.2369 46.0029C74.0372 46.0226 73.828 46.1718 73.7173 46.3342C73.4523 46.7233 73.507 47.2265 73.451 47.6702C73.382 48.2155 73.2852 48.7804 73.1684 49.3169C72.8963 50.5656 72.481 51.7629 72.0476 52.9626C71.8434 53.528 71.2659 54.6632 71.4058 55.2202C71.5282 55.3738 71.6329 55.4023 71.8124 55.4561C71.9471 55.4911 72.0399 55.5033 72.1767 55.4657C72.5677 55.3583 72.8253 55.0692 73.0254 54.7339C73.3399 54.2073 73.5269 53.6417 73.7395 53.0698C74.1804 51.8842 74.5101 50.6681 74.7509 49.4267C74.8879 48.7219 75.0546 47.7638 74.8701 47.0585C74.7681 46.6686 74.844 46.3162 74.5326 46.0235Z" fill="white"/>
<path d="M117.425 92.5041L117.194 92.4532C117.025 92.5161 116.993 92.5059 116.904 92.6595C116.951 92.8602 117.023 92.9912 117.151 93.1535C117.574 93.69 118.131 94.1192 118.668 94.5341C120.661 96.0742 122.979 97.1391 125.347 97.9598C126.287 98.2854 127.2 98.6067 128.198 98.7056L128.348 98.6942C128.526 98.5457 128.316 98.3127 128.39 98.1112C128.421 98.0252 128.597 97.9737 128.654 97.817C128.405 97.3524 126.684 96.9836 126.133 96.7917C124.143 96.0991 122.12 95.3286 120.282 94.2902C119.302 93.7363 118.436 93.0098 117.425 92.5041Z" fill="white"/>
<path d="M59.3398 47.5148L59.1903 47.4937C59.0745 47.5358 58.9903 47.573 58.8958 47.6544C58.6449 47.8702 58.5258 48.0578 58.4911 48.3848C58.5996 48.7913 58.8685 49.1311 59.0859 49.4855C59.8839 50.7862 60.5578 52.1929 61.2011 53.5768C61.6104 54.4572 61.9916 55.3795 62.4839 56.2171C62.6814 56.5528 62.9441 56.7886 63.2331 57.0411L63.4645 57.1581C63.6377 57.2275 63.7441 57.285 63.9174 57.2152C63.9784 56.9253 63.896 56.6535 63.8328 56.3697C63.6926 55.7411 63.4841 55.1291 63.2674 54.5233C62.7356 53.0361 62.1123 51.5629 61.3953 50.1558C60.9216 49.226 60.3227 47.9809 59.3398 47.5148Z" fill="white"/>
<path d="M48.6184 54.9524L48.3759 54.9381C48.2277 55.0248 48.0981 55.1494 48.0345 55.3135C47.9623 55.4994 48.0146 55.6068 48.0877 55.7795C48.5621 56.1923 49.1985 56.4444 49.7437 56.7614C50.3145 57.0934 50.8266 57.5168 51.3134 57.9616C52.2804 58.8456 53.0236 59.966 53.7759 61.0317C54.2385 61.6873 54.6693 62.4308 55.3242 62.9157C55.6876 63.1846 56.1113 63.3226 56.5414 63.4388C56.6632 63.4453 56.8089 63.4409 56.9238 63.395C57.1127 63.3196 57.1916 63.2669 57.2586 63.081C57.1503 62.7075 56.9729 62.3978 56.7642 62.0731C56.2217 61.2288 55.5484 60.4533 54.9096 59.6804C53.1838 57.5932 51.3774 55.5577 48.6184 54.9524Z" fill="white"/>
<path d="M139.376 90.4534C139.099 90.3684 138.883 90.439 138.616 90.5346C138.099 90.7198 137.63 91.0818 137.123 91.3106C135.877 91.8733 134.453 92.2319 133.109 92.4759C130.216 93.0012 127.165 92.7779 124.324 92.0605C123.864 91.9441 123.406 91.8208 122.955 91.672C122.343 91.4702 121.765 91.237 121.11 91.2869L121.076 91.3855C121.208 91.6821 121.454 91.8053 121.716 91.9759C122.921 92.6672 124.188 93.1711 125.544 93.4845C128.708 94.2158 132.001 94.0231 135.098 93.0903C136.25 92.7433 137.354 92.3463 138.376 91.6986C138.785 91.4395 139.354 91.0685 139.466 90.5777L139.376 90.4534Z" fill="white"/>
<path d="M152.58 78.0875C152.393 78.1143 152.145 78.2841 151.976 78.3779C151.544 78.6186 151.12 78.8793 150.667 79.0818C150.103 79.3337 149.469 79.5119 148.869 79.66C148.492 81.1146 147.841 82.1336 146.677 83.1021C144.413 84.986 140.648 85.4989 137.791 85.249C136.037 85.0954 134.331 84.7014 132.582 84.5275C132.919 84.9204 133.232 85.1927 133.661 85.4766L134.752 85.9791C138.338 87.3648 142.826 87.6776 146.381 86.0781C148.443 85.1507 150.202 83.6758 151.436 81.7812C151.767 81.2732 152.075 80.7935 152.291 80.2247C152.515 79.6316 152.859 78.7043 152.58 78.0875Z" fill="white"/>
<path d="M123.44 115.744C123.328 115.709 123.277 115.713 123.162 115.722C122.969 115.832 122.892 115.902 122.768 116.086C122.746 116.277 122.74 116.439 122.819 116.618C123.098 117.252 123.601 117.82 123.997 118.384C124.714 119.404 125.424 120.434 126.109 121.475C127.42 123.469 128.702 125.484 129.997 127.489C131.497 129.812 132.923 132.162 134.706 134.285C135.56 135.302 136.586 136.45 137.851 136.941C138.449 137.173 138.918 137.117 139.496 136.872C139.891 136.604 140.172 136.293 140.483 135.933L140.258 135.952C140.09 135.965 139.905 135.989 139.739 135.95C139.48 135.889 139.198 135.685 138.974 135.543C138.331 135.136 137.803 134.623 137.27 134.085C135.837 132.641 134.664 130.945 133.507 129.28C132.662 128.063 131.803 126.85 130.932 125.649C129.352 123.47 127.726 121.321 126.141 119.144C125.614 118.421 125.121 117.68 124.582 116.964C124.235 116.503 123.937 116.059 123.44 115.744Z" fill="white"/>
<path d="M161.132 67.8406C160.376 68.5714 159.439 69.2896 158.506 69.7717C158.102 69.9805 157.679 70.1192 157.269 70.3114C157.238 70.3258 157.046 70.408 157.036 70.4219C156.984 70.4942 156.963 70.951 156.94 71.0696C156.758 72.012 156.218 73.0286 155.463 73.6475C154.122 74.747 152.602 75.4912 150.984 76.0957C147.307 77.4701 143.642 77.8421 139.747 77.8387C138.657 77.8378 137.515 77.8892 136.435 77.7556L136.343 77.7439C136.598 78.0083 136.832 78.2107 137.145 78.4045C138.531 79.1273 140.501 79.1451 142.043 79.1999C144.87 79.3004 147.677 78.7602 150.412 78.126C151.399 77.8971 152.351 77.7072 153.293 77.3156C154.991 76.6099 156.558 75.615 157.895 74.351C159.732 72.6136 161.066 70.4061 161.132 67.8406Z" fill="white"/>
<path d="M161.977 62.0728C161.381 62.6617 160.802 63.2542 160.118 63.7454C158.996 64.5522 157.713 65.2168 156.493 65.865C154.181 67.0934 151.764 68.3101 149.304 69.2112C147.58 69.8426 145.838 70.2893 144.081 70.8042C143.615 70.941 143.073 71.1451 142.831 71.5941C142.824 71.8765 142.79 71.899 142.984 72.1222C143.229 72.2807 143.54 72.2798 143.822 72.2795C144.841 72.2784 145.868 72.1244 146.876 71.9857C148.974 71.6967 150.999 71.2303 153.032 70.645C155.469 69.9431 158.387 68.9978 160.198 67.137C161.576 65.7218 161.987 63.9921 161.977 62.0728Z" fill="white"/>
<path d="M76.2865 63.0496C73.6009 63.0027 71.0147 63.4469 68.6725 64.8218C67.2691 65.6457 66.0793 66.7035 65.1196 68.0152C64.7442 68.5284 64.3565 69.1321 64.2095 69.7568C64.1292 70.0978 64.076 70.6045 64.2594 70.9007C64.5525 70.8504 64.771 70.3131 64.9138 70.0674C65.5611 68.9529 66.4213 68.0658 67.3841 67.2169C70.3667 64.5872 74.4749 64.0099 78.3111 64.276C83.0385 64.6041 86.9659 66.619 90.3785 69.8444C91.3237 70.7377 92.1794 71.7184 93.0378 72.6938C94.6936 74.6441 96.4043 76.5304 98.1713 78.3803C98.8778 79.12 99.5752 79.8516 100.323 80.5516C100.836 81.0322 101.436 81.5876 102.103 81.8407C102.267 81.9031 102.303 81.9291 102.461 81.8588C102.542 81.7402 102.589 81.6847 102.601 81.5359C102.62 81.3017 102.165 80.9537 101.994 80.7922C98.3141 77.3302 95.3315 73.2376 91.8168 69.6233C88.5888 66.3039 84.4752 63.864 79.8397 63.2214C78.6675 63.059 77.4679 63.067 76.2865 63.0496Z" fill="white"/>
<path d="M83.7334 92.442L83.6544 92.4502C83.5598 92.4724 83.423 92.5438 83.3713 92.623C83.267 92.7827 83.2687 93 83.3011 93.1834C83.4607 94.0847 84.1414 94.9502 84.6001 95.7269C85.6621 97.5242 86.863 99.1678 88.1349 100.82C90.9819 104.518 94.2427 107.858 98.0123 110.619C103.47 114.618 109.764 117.209 116.228 119.07C118.247 119.651 120.665 120.404 122.785 120.079L123.1 119.944C123.265 119.838 123.307 119.68 123.36 119.504C123.116 119.281 121.992 119.294 121.587 119.215C119.543 118.815 117.525 118.317 115.522 117.746C109.59 116.055 103.884 113.522 98.8966 109.861C95.876 107.645 92.9827 104.819 90.6395 101.891C89.3727 100.307 88.1527 98.6788 87.0277 96.9913C86.1569 95.6851 85.3738 94.2844 84.417 93.041C84.213 92.7757 84.0497 92.5654 83.7334 92.442Z" fill="white"/>
<path d="M64.042 71.5508C62.2313 71.5095 60.393 72.0244 59.0439 73.2835C58.5305 73.7625 58.1363 74.298 57.58 74.7473C59.4408 76.3823 61.6933 77.2222 64.1398 77.4283C64.467 77.4557 65.0473 77.2962 65.3142 77.4219C66.1201 77.8014 66.8637 78.5308 67.6189 79.031C69.1723 80.0599 70.765 80.8784 72.4798 81.6002L75.5675 82.6239L76.1099 82.069L66.2514 76.9558C66.7279 76.7383 67.2924 76.5884 67.7356 76.3162C68.0746 76.1082 68.3374 75.7059 68.4119 75.3167C68.5289 74.7044 68.0932 73.9816 67.7389 73.5068C66.9172 72.4057 65.3669 71.734 64.042 71.5508Z" fill="white"/>
<path d="M129.886 121.088L129.748 121.052C129.492 121.126 129.279 121.365 129.082 121.54C130.121 122.746 131.665 123.705 132.935 124.655C135.786 126.791 138.698 128.845 141.532 131.004C144.785 133.48 147.998 136.017 151.094 138.689C151.947 139.425 152.732 140.239 153.59 140.979C152.959 141.322 152.065 141.892 151.324 141.879C150.98 141.873 150.605 141.683 150.307 141.526C148.527 140.586 147.329 138.691 146.122 137.143C145.568 136.432 144.986 135.745 144.428 135.038C143.628 134.024 142.607 132.464 141.304 132.104C140.867 131.983 140.647 132.02 140.258 132.263C139.856 132.515 139.615 132.903 139.513 133.359C139.341 134.13 139.666 134.666 140.072 135.285C140.338 134.966 140.61 134.756 140.949 134.524C141.632 135.016 142.214 135.687 142.792 136.297C143.806 137.395 144.861 138.455 145.877 139.551C146.508 140.232 147.128 140.923 147.758 141.605C147.985 141.85 148.269 142.232 148.552 142.407C149.547 143.023 150.734 143.039 151.842 142.755C152.957 142.471 154.225 141.733 155.388 141.845C156.07 141.911 156.724 142.109 157.4 142.18C158.864 142.333 160.021 141.952 161.164 141.051C160.016 140.914 158.833 141.401 157.666 141.154C156.373 140.881 155.219 140.266 154.121 139.544C151.961 138.124 150.067 136.307 148.047 134.701C146.637 133.58 145.236 132.442 143.801 131.351C141.012 129.228 138.147 127.208 135.323 125.133C134.325 124.399 133.309 123.677 132.327 122.923C131.527 122.309 130.743 121.621 129.886 121.088Z" fill="white"/>
<path d="M160.789 60.6885C160.73 60.673 160.716 60.6665 160.646 60.6649C160.06 60.6517 159.288 60.9261 158.751 61.133C157.428 61.642 156.179 62.3281 154.902 62.9375C152.831 63.9259 150.746 64.8711 148.625 65.7479C146.197 66.7518 143.722 67.6847 141.242 68.555C135.643 70.5199 130.024 72.4264 124.421 74.3829C120.791 75.6507 117.12 76.8556 113.545 78.2741C111.825 78.9567 110.069 79.6257 108.45 80.5279C108.061 80.7441 107.554 80.9737 107.247 81.2978L107.372 81.3685C108.635 81.5124 110.103 81.3429 111.329 81.01C113.64 80.3829 115.895 79.4362 118.14 78.6045C121.794 77.2503 125.45 75.9005 129.1 74.5345C132.597 73.226 136.1 71.9322 139.614 70.6692C142.597 69.5967 145.593 68.5713 148.521 67.352C152.302 65.7776 155.92 63.9181 159.43 61.8107C159.805 61.5851 160.766 61.1715 160.926 60.7837L160.789 60.6885Z" fill="white"/>
<path d="M108.094 82.3754C107.999 82.3532 108.001 82.3379 107.917 82.3669C107.585 82.4808 107.345 82.8391 107.195 83.1372C106.902 83.7201 106.86 84.3083 106.876 84.9495C106.917 86.6795 107.408 88.5173 107.932 90.1599C109.06 93.6892 110.805 96.9807 112.966 99.9854C113.921 101.313 114.998 102.582 116.039 103.845C117.797 105.981 119.588 108.079 121.458 110.12C122.414 111.164 123.413 112.17 124.384 113.2C125.497 114.38 126.369 115.76 127.553 116.875C128.383 117.656 129.359 118.311 130.274 118.989C131.248 119.709 132.205 120.461 133.157 121.211C134.782 122.49 136.379 123.808 138.031 125.052C141.993 128.038 146.07 130.882 150.122 133.745C151.14 134.464 152.167 135.172 153.169 135.912C154.251 136.712 155.322 137.548 156.45 138.28C157.295 138.828 158.225 139.308 159.121 139.77C159.556 139.995 160.471 140.46 160.954 140.27C161.079 140.221 161.057 140.212 161.109 140.103C160.979 140.019 160.869 139.925 160.752 139.824L160.804 139.784L161.479 139.908C161.689 139.94 161.826 139.949 162 139.824L161.986 139.668C161.4 138.749 159.984 138.186 159.063 137.639C158.047 137.035 156.975 136.394 156.018 135.705C155.252 135.172 154.434 134.691 153.655 134.176C151.159 132.529 148.661 130.851 146.226 129.115C145.37 128.505 144.538 127.85 143.691 127.228C140.511 124.896 137.339 122.547 134.332 119.99C133.318 119.128 132.369 118.175 131.389 117.274C127.839 114.008 124.364 110.604 121.13 107.024C119.889 105.649 118.678 104.187 117.558 102.712C117.279 102.345 116.658 101.669 116.682 101.204C117.29 100.893 118.656 101.216 119.334 101.266C119.915 101.309 120.507 101.31 121.09 101.299C123.494 101.254 126.071 100.918 128.227 99.8147C127.984 99.6566 127.555 99.5165 127.262 99.5212C126.171 99.5385 125.074 99.889 124.003 100.079C122.693 100.312 121.261 100.383 119.929 100.31C117.34 100.166 115.005 99.5227 113.228 97.5206C112.52 96.7232 111.953 95.7704 111.42 94.8528C109.246 91.1044 107.861 86.7387 108.094 82.3754Z" fill="white"/>
</svg>
